name rise31.4854peak64.571fall78.6902.mot
datacolumns 19
datarows 24
range 14.52160900000000 14.55994200000000
endheader
time	ground_force1_vx	ground_force1_vy	ground_force1_vz	ground_force1_px	ground_force1_py	ground_force1_pz	ground_force2_vx	ground_force2_vy	ground_force2_vz	ground_force2_px	ground_force2_py	ground_force2_pz	ground_torque1_x	ground_torque1_y	ground_torque1_z	ground_torque2_x	ground_torque2_y	ground_torque2_z	
14.52160900000000	63.13621100000000	759.01791700000001	49.11042600000000	0.31901200000000	0.00000000000000	0.09394000000000	0.00000000000000	0.00000000000000	0.00000000000000	0.00000000000000	0.00000000000000	0.00000000000000	0.00000000000000	18.24281200000000	0.00000000000000	0.00000000000000	0.00000000000000	0.00000000000000	
14.52327600000000	62.38207800000000	760.51230799999996	49.17734200000000	0.31786400000000	0.00000000000000	0.09391400000000	0.00000000000000	0.00000000000000	0.00000000000000	0.00000000000000	0.00000000000000	0.00000000000000	0.00000000000000	18.29044700000000	0.00000000000000	0.00000000000000	0.00000000000000	0.00000000000000	
14.52495000000000	61.63805100000000	761.92242199999998	49.25156700000000	0.31675700000000	0.00000000000000	0.09388600000000	0.00000000000000	0.00000000000000	0.00000000000000	0.00000000000000	0.00000000000000	0.00000000000000	0.00000000000000	18.34368000000000	0.00000000000000	0.00000000000000	0.00000000000000	0.00000000000000	
14.52661200000000	60.90446500000000	763.24726999999996	49.33316000000000	0.31569100000000	0.00000000000000	0.09385800000000	0.00000000000000	0.00000000000000	0.00000000000000	0.00000000000000	0.00000000000000	0.00000000000000	0.00000000000000	18.40249700000000	0.00000000000000	0.00000000000000	0.00000000000000	0.00000000000000	
14.52827700000000	60.18154800000000	764.48584800000003	49.42206800000000	0.31466400000000	0.00000000000000	0.09382900000000	0.00000000000000	0.00000000000000	0.00000000000000	0.00000000000000	0.00000000000000	0.00000000000000	0.00000000000000	18.46682400000000	0.00000000000000	0.00000000000000	0.00000000000000	0.00000000000000	
14.52994400000000	59.46942000000000	765.63714600000003	49.51813500000000	0.31367700000000	0.00000000000000	0.09379800000000	0.00000000000000	0.00000000000000	0.00000000000000	0.00000000000000	0.00000000000000	0.00000000000000	0.00000000000000	18.53652700000000	0.00000000000000	0.00000000000000	0.00000000000000	0.00000000000000	
14.53161100000000	58.76810600000000	766.70017399999995	49.62110200000000	0.31272700000000	0.00000000000000	0.09376700000000	0.00000000000000	0.00000000000000	0.00000000000000	0.00000000000000	0.00000000000000	0.00000000000000	0.00000000000000	18.61141500000000	0.00000000000000	0.00000000000000	0.00000000000000	0.00000000000000	
14.53329700000000	58.07753400000000	767.67397000000005	49.73061400000000	0.31181400000000	0.00000000000000	0.09373400000000	0.00000000000000	0.00000000000000	0.00000000000000	0.00000000000000	0.00000000000000	0.00000000000000	0.00000000000000	18.69124300000000	0.00000000000000	0.00000000000000	0.00000000000000	0.00000000000000	
14.53494400000000	57.39754100000000	768.55761900000005	49.84622300000000	0.31093700000000	0.00000000000000	0.09370000000000	0.00000000000000	0.00000000000000	0.00000000000000	0.00000000000000	0.00000000000000	0.00000000000000	0.00000000000000	18.77571600000000	0.00000000000000	0.00000000000000	0.00000000000000	0.00000000000000	
14.53661600000000	56.72788300000000	769.35026800000003	49.96739700000000	0.31009300000000	0.00000000000000	0.09366600000000	0.00000000000000	0.00000000000000	0.00000000000000	0.00000000000000	0.00000000000000	0.00000000000000	0.00000000000000	18.86449100000000	0.00000000000000	0.00000000000000	0.00000000000000	0.00000000000000	
14.53828000000000	56.06823700000000	770.05114000000003	50.09352200000000	0.30928200000000	0.00000000000000	0.09362900000000	0.00000000000000	0.00000000000000	0.00000000000000	0.00000000000000	0.00000000000000	0.00000000000000	0.00000000000000	18.95718000000000	0.00000000000000	0.00000000000000	0.00000000000000	0.00000000000000	
14.53994700000000	55.41820800000000	770.65954799999997	50.22391300000000	0.30850000000000	0.00000000000000	0.09359200000000	0.00000000000000	0.00000000000000	0.00000000000000	0.00000000000000	0.00000000000000	0.00000000000000	0.00000000000000	19.05335600000000	0.00000000000000	0.00000000000000	0.00000000000000	0.00000000000000	
14.54161200000000	54.77733800000000	771.17490799999996	50.35781800000000	0.30774600000000	0.00000000000000	0.09355400000000	0.00000000000000	0.00000000000000	0.00000000000000	0.00000000000000	0.00000000000000	0.00000000000000	0.00000000000000	19.15255600000000	0.00000000000000	0.00000000000000	0.00000000000000	0.00000000000000	
14.54327700000000	54.14511000000000	771.59675500000003	50.49442600000000	0.30701800000000	0.00000000000000	0.09351400000000	0.00000000000000	0.00000000000000	0.00000000000000	0.00000000000000	0.00000000000000	0.00000000000000	0.00000000000000	19.25428300000000	0.00000000000000	0.00000000000000	0.00000000000000	0.00000000000000	
14.54495000000000	53.52095400000000	771.92474700000002	50.63287400000000	0.30631400000000	0.00000000000000	0.09347300000000	0.00000000000000	0.00000000000000	0.00000000000000	0.00000000000000	0.00000000000000	0.00000000000000	0.00000000000000	19.35801000000000	0.00000000000000	0.00000000000000	0.00000000000000	0.00000000000000	
14.54661400000000	52.90425700000000	772.15868300000000	50.77225600000000	0.30563000000000	0.00000000000000	0.09343100000000	0.00000000000000	0.00000000000000	0.00000000000000	0.00000000000000	0.00000000000000	0.00000000000000	0.00000000000000	19.46319000000000	0.00000000000000	0.00000000000000	0.00000000000000	0.00000000000000	
14.54827700000000	52.29437100000000	772.29851099999996	50.91162900000000	0.30496600000000	0.00000000000000	0.09338800000000	0.00000000000000	0.00000000000000	0.00000000000000	0.00000000000000	0.00000000000000	0.00000000000000	0.00000000000000	19.56925100000000	0.00000000000000	0.00000000000000	0.00000000000000	0.00000000000000	
14.54994700000000	51.69061500000000	772.34433300000001	51.05002100000000	0.30431700000000	0.00000000000000	0.09334400000000	0.00000000000000	0.00000000000000	0.00000000000000	0.00000000000000	0.00000000000000	0.00000000000000	0.00000000000000	19.67560700000000	0.00000000000000	0.00000000000000	0.00000000000000	0.00000000000000	
14.55161300000000	51.09228500000000	772.29641700000002	51.18644300000000	0.30368300000000	0.00000000000000	0.09329800000000	0.00000000000000	0.00000000000000	0.00000000000000	0.00000000000000	0.00000000000000	0.00000000000000	0.00000000000000	19.78166000000000	0.00000000000000	0.00000000000000	0.00000000000000	0.00000000000000	
14.55327600000000	50.49866100000000	772.15520400000003	51.31988900000000	0.30305900000000	0.00000000000000	0.09325200000000	0.00000000000000	0.00000000000000	0.00000000000000	0.00000000000000	0.00000000000000	0.00000000000000	0.00000000000000	19.88680300000000	0.00000000000000	0.00000000000000	0.00000000000000	0.00000000000000	
14.55494500000000	49.90901600000000	771.92130999999995	51.44935000000000	0.30244300000000	0.00000000000000	0.09320400000000	0.00000000000000	0.00000000000000	0.00000000000000	0.00000000000000	0.00000000000000	0.00000000000000	0.00000000000000	19.99042800000000	0.00000000000000	0.00000000000000	0.00000000000000	0.00000000000000	
14.55661400000000	49.32261600000000	771.59553300000005	51.57382200000000	0.30183300000000	0.00000000000000	0.09315500000000	0.00000000000000	0.00000000000000	0.00000000000000	0.00000000000000	0.00000000000000	0.00000000000000	0.00000000000000	20.09192600000000	0.00000000000000	0.00000000000000	0.00000000000000	0.00000000000000	
14.55827500000000	48.73873600000000	771.17885600000000	51.69231000000000	0.30122500000000	0.00000000000000	0.09310500000000	0.00000000000000	0.00000000000000	0.00000000000000	0.00000000000000	0.00000000000000	0.00000000000000	0.00000000000000	20.19069300000000	0.00000000000000	0.00000000000000	0.00000000000000	0.00000000000000	
14.55994200000000	48.15665600000000	770.67244900000003	51.80383600000000	0.30061800000000	0.00000000000000	0.09305400000000	0.00000000000000	0.00000000000000	0.00000000000000	0.00000000000000	0.00000000000000	0.00000000000000	0.00000000000000	20.28613700000000	0.00000000000000	0.00000000000000	0.00000000000000	0.00000000000000	
